<svg viewBox="0 0 654 683" fill="none" preserveAspectRatio="none" xmlns="http://www.w3.org/2000/svg">
<path d="M227.594 333.588C236.994 375.856 202.304 462.779 109.625 422.358C57.7916 403.347 9.38679 313.393 39.8874 264.742C70.3879 216.092 92.2649 133.866 157.856 175.973C223.446 218.08 218.194 291.321 227.594 333.588Z" fill="url(#paint0_linear)" fill-opacity="0.5"/>
<path d="M865.869 318.406C957.179 397.09 640.67 637.252 423.33 592.486C205.99 547.72 154.33 317.689 138.714 184.373C123.099 51.0576 366.433 -161.051 581.253 -89.7053C796.073 -18.3601 774.56 239.721 865.869 318.406Z" fill="url(#paint1_linear)" fill-opacity="0.34"/>
<path d="M383.015 455.528C297.215 591.275 128.741 738.59 63.7477 661.849C-1.24539 585.108 -123.219 600.438 -134.485 500.081C-145.75 399.724 29.8019 240.054 184.783 293.761C339.764 347.468 468.816 319.781 383.015 455.528Z" fill="url(#paint2_linear)" fill-opacity="0.42"/>
<defs>
<linearGradient id="paint0_linear" x1="11.3372" y1="98.7944" x2="310.777" y2="405.739" gradientUnits="userSpaceOnUse">
<stop stop-color="#0BBFF8"/>
<stop offset="1" stop-color="#213DBE" stop-opacity="0"/>
</linearGradient>
<linearGradient id="paint1_linear" x1="680.371" y1="154.19" x2="406.208" y2="575.789" gradientUnits="userSpaceOnUse">
<stop stop-color="#022DEF"/>
<stop offset="1" stop-color="#213DBE" stop-opacity="0"/>
</linearGradient>
<linearGradient id="paint2_linear" x1="-292.911" y1="331.923" x2="193.019" y2="803.01" gradientUnits="userSpaceOnUse">
<stop stop-color="#213DBE"/>
<stop offset="1" stop-color="#213DBE" stop-opacity="0"/>
</linearGradient>
</defs>
</svg>
